<?xml version="1.0" standalone="no"?>
<!DOCTYPE svg PUBLIC "-//W3C//DTD SVG 20010904//EN"
 "http://www.w3.org/TR/2001/REC-SVG-20010904/DTD/svg10.dtd">
<svg version="1.0" xmlns="http://www.w3.org/2000/svg"
 width="512.000000pt" height="512.000000pt" viewBox="0 0 512.000000 512.000000"
 preserveAspectRatio="xMidYMid meet">

<g transform="translate(0.000000,512.000000) scale(0.100000,-0.100000)"
fill="rgb(113, 118, 123)" stroke="none">
<path d="M3995 4640 l-110 -110 345 -345 345 -345 -2128 0 -2127 0 0 -160 0
-160 2127 0 2128 0 -345 -345 -345 -345 113 -112 112 -113 499 500 c439 440
500 505 506 538 17 92 35 70 -503 610 -273 273 -499 497 -502 497 -3 0 -55
-50 -115 -110z"/>
<path d="M508 2013 c-538 -540 -520 -518 -503 -610 6 -33 67 -98 506 -538
l499 -500 112 113 113 112 -345 345 -345 345 2128 0 2127 0 0 160 0 160 -2127
0 -2128 0 345 345 345 345 -110 110 c-60 60 -112 110 -115 110 -3 0 -229 -224
-502 -497z"/>
</g>
</svg>
