<?xml version="1.0" standalone="no"?>
<!DOCTYPE svg PUBLIC "-//W3C//DTD SVG 20010904//EN"
 "http://www.w3.org/TR/2001/REC-SVG-20010904/DTD/svg10.dtd">
<svg version="1.0" xmlns="http://www.w3.org/2000/svg"
 width="64.000000pt" height="64.000000pt" viewBox="0 0 64.000000 64.000000"
 preserveAspectRatio="xMidYMid meet">
  <g transform="translate(0.000000,64.000000) scale(0.100000,-0.100000)"
  fill="rgb(113, 118, 123)" stroke="none">
    <path d="M255 584 c-6 -1 -27 -5 -48 -9 -45 -7 -114 -65 -134 -112 -20 -49
    -16 -130 8 -181 41 -84 153 -130 242 -99 l45 15 68 -69 c70 -70 104 -85 132
    -57 28 28 13 62 -57 132 l-69 69 14 40 c20 56 17 94 -10 154 -17 35 -38 60
    -65 79 -38 24 -102 44 -126 38z m80 -43 c70 -32 105 -86 105 -162 0 -147 -170
    -232 -286 -144 -66 50 -90 138 -59 212 21 50 42 72 90 94 51 24 99 24 150 0z
    m164 -356 c63 -65 74 -96 38 -103 -11 -2 -43 21 -85 61 -66 65 -66 66 -48 86
    11 12 22 21 26 21 4 0 35 -29 69 -65z"/>
    <path d="M222 488 c-30 -30 -3 -98 39 -98 24 0 59 34 59 58 0 41 -69 69 -98
    40z m56 -17 c21 -13 10 -46 -16 -49 -27 -4 -40 22 -22 43 14 17 20 18 38 6z"/>
    <path d="M185 355 c-16 -15 -25 -36 -25 -54 0 -38 17 -43 120 -39 l75 3 3 36
    c4 51 -32 79 -100 79 -39 0 -54 -5 -73 -25z m145 -24 c19 -37 12 -41 -65 -41
    -66 0 -75 2 -75 18 0 30 22 42 77 42 41 0 54 -4 63 -19z"/>
  </g>
</svg>
