<?xml version="1.0" standalone="no"?>
<!DOCTYPE svg PUBLIC "-//W3C//DTD SVG 20010904//EN"
 "http://www.w3.org/TR/2001/REC-SVG-20010904/DTD/svg10.dtd">
<svg version="1.0" xmlns="http://www.w3.org/2000/svg"
 width="512.000000pt" height="512.000000pt" viewBox="0 0 512.000000 512.000000"
 preserveAspectRatio="xMidYMid meet">
  <g transform="translate(0.000000,512.000000) scale(0.100000,-0.100000)"
  fill="rgb(113, 118, 123)" stroke="none">
    <path d="M2157 3576 c-50 -18 -64 -32 -92 -85 -21 -43 -254 -740 -361 -1083
    -27 -87 -52 -158 -55 -158 -3 0 -50 123 -104 273 -99 276 -123 324 -179 358
    -30 18 -58 19 -635 19 l-604 0 -43 -25 c-94 -55 -111 -179 -36 -259 53 -57 47
    -56 605 -56 l514 0 143 -397 c193 -538 195 -542 232 -580 63 -65 158 -67 228
    -5 41 37 43 41 166 427 202 633 307 955 313 955 3 0 45 -78 93 -173 106 -210
    116 -219 247 -227 l85 -5 116 -292 c63 -160 125 -305 138 -322 60 -82 188 -86
    258 -9 12 12 95 159 185 326 l164 302 723 0 c785 0 760 -2 814 56 75 80 58
    204 -36 259 l-43 25 -803 0 -803 0 -42 -24 c-35 -21 -52 -45 -120 -168 -125
    -230 -137 -249 -142 -244 -3 3 -35 79 -70 168 -77 194 -90 217 -141 246 -32
    18 -56 22 -121 22 l-81 0 -146 293 c-80 160 -157 307 -171 325 -28 38 -91 72
    -130 72 -15 -1 -45 -7 -66 -14z"/>
  </g>
</svg>
